# xmcd CD database file
#
# Track frame offsets:
#	187
#	4699
#	24809
#	43557
#	70059
#	97109
#	110519
#	127822
#	143197
#	171097
#	190634
#
# Disc length: 2730 seconds
#
# Revision: 5
# Processed by: cddbd v1.5PL3 Copyright (c) Steve Scherf et al.
# Submitted via: CDex 1.51
#
DISCID=840aa80b
DTITLE=Yngwie J. Malmsteen's RISING FORCE - Marching Out
DYEAR=1985
DGENRE=Heavy Metal
TTITLE0=Prelude
TTITLE1=I'll See The Light Tonight
TTITLE2=Don't Let It End
TTITLE3=Disciples Of Hell
TTITLE4=I Am A Viking
TTITLE5=Overture 1383
TTITLE6=Anguish And Fear
TTITLE7=On The Run Again
TTITLE8=Soldier Without Faith
TTITLE9=Caught In The Middle
TTITLE10=Marching Out
EXTD=YEAR: 1985
EXTT0=
EXTT1=
EXTT2=
EXTT3=
EXTT4=
EXTT5=
EXTT6=
EXTT7=
EXTT8=
EXTT9=
EXTT10=
PLAYORDER=
